<mxfile host="app.diagrams.net" modified="2022-04-10T09:44:56.278Z" agent="5.0 (Windows NT 10.0; Win64; x64) AppleWebKit/537.36 (KHTML, like Gecko) Chrome/100.0.4896.75 Safari/537.36 Edg/100.0.1185.36" etag="KqaneHUZwVQg5aZMGa8I" version="17.4.2" type="github">
  <diagram id="C5RBs43oDa-KdzZeNtuy" name="Page-1">
    <mxGraphModel dx="1002" dy="859" grid="1" gridSize="10" guides="1" tooltips="1" connect="1" arrows="1" fold="1" page="1" pageScale="1" pageWidth="827" pageHeight="1169" math="0" shadow="0">
      <root>
        <mxCell id="WIyWlLk6GJQsqaUBKTNV-0" />
        <mxCell id="WIyWlLk6GJQsqaUBKTNV-1" parent="WIyWlLk6GJQsqaUBKTNV-0" />
        <mxCell id="BLrR2sBAfBf9mA0j4aaJ-2" style="edgeStyle=orthogonalEdgeStyle;rounded=0;orthogonalLoop=1;jettySize=auto;html=1;entryX=0.5;entryY=0;entryDx=0;entryDy=0;" edge="1" parent="WIyWlLk6GJQsqaUBKTNV-1" source="WIyWlLk6GJQsqaUBKTNV-3" target="BLrR2sBAfBf9mA0j4aaJ-0">
          <mxGeometry relative="1" as="geometry" />
        </mxCell>
        <mxCell id="WIyWlLk6GJQsqaUBKTNV-3" value="main.js" style="rounded=1;whiteSpace=wrap;html=1;fontSize=12;glass=0;strokeWidth=1;shadow=0;" parent="WIyWlLk6GJQsqaUBKTNV-1" vertex="1">
          <mxGeometry x="220" y="170" width="60" height="40" as="geometry" />
        </mxCell>
        <mxCell id="BLrR2sBAfBf9mA0j4aaJ-12" style="edgeStyle=orthogonalEdgeStyle;rounded=0;orthogonalLoop=1;jettySize=auto;html=1;" edge="1" parent="WIyWlLk6GJQsqaUBKTNV-1" source="BLrR2sBAfBf9mA0j4aaJ-0" target="BLrR2sBAfBf9mA0j4aaJ-3">
          <mxGeometry relative="1" as="geometry" />
        </mxCell>
        <mxCell id="BLrR2sBAfBf9mA0j4aaJ-0" value="app" style="rounded=1;whiteSpace=wrap;html=1;fontSize=12;glass=0;strokeWidth=1;shadow=0;" vertex="1" parent="WIyWlLk6GJQsqaUBKTNV-1">
          <mxGeometry x="220" y="240" width="60" height="30" as="geometry" />
        </mxCell>
        <mxCell id="BLrR2sBAfBf9mA0j4aaJ-15" style="edgeStyle=orthogonalEdgeStyle;rounded=0;orthogonalLoop=1;jettySize=auto;html=1;entryX=0.5;entryY=0;entryDx=0;entryDy=0;" edge="1" parent="WIyWlLk6GJQsqaUBKTNV-1" source="BLrR2sBAfBf9mA0j4aaJ-3" target="BLrR2sBAfBf9mA0j4aaJ-5">
          <mxGeometry relative="1" as="geometry" />
        </mxCell>
        <mxCell id="BLrR2sBAfBf9mA0j4aaJ-17" style="edgeStyle=orthogonalEdgeStyle;rounded=0;orthogonalLoop=1;jettySize=auto;html=1;entryX=0.5;entryY=0;entryDx=0;entryDy=0;" edge="1" parent="WIyWlLk6GJQsqaUBKTNV-1" source="BLrR2sBAfBf9mA0j4aaJ-3" target="BLrR2sBAfBf9mA0j4aaJ-4">
          <mxGeometry relative="1" as="geometry" />
        </mxCell>
        <mxCell id="BLrR2sBAfBf9mA0j4aaJ-3" value="router" style="rounded=1;whiteSpace=wrap;html=1;fontSize=12;glass=0;strokeWidth=1;shadow=0;" vertex="1" parent="WIyWlLk6GJQsqaUBKTNV-1">
          <mxGeometry x="220" y="300" width="60" height="40" as="geometry" />
        </mxCell>
        <mxCell id="BLrR2sBAfBf9mA0j4aaJ-18" style="edgeStyle=orthogonalEdgeStyle;rounded=0;orthogonalLoop=1;jettySize=auto;html=1;entryX=0.5;entryY=0;entryDx=0;entryDy=0;" edge="1" parent="WIyWlLk6GJQsqaUBKTNV-1" source="BLrR2sBAfBf9mA0j4aaJ-4" target="BLrR2sBAfBf9mA0j4aaJ-6">
          <mxGeometry relative="1" as="geometry">
            <mxPoint x="250" y="470" as="targetPoint" />
          </mxGeometry>
        </mxCell>
        <mxCell id="BLrR2sBAfBf9mA0j4aaJ-4" value="controller" style="rounded=1;whiteSpace=wrap;html=1;fontSize=12;glass=0;strokeWidth=1;shadow=0;" vertex="1" parent="WIyWlLk6GJQsqaUBKTNV-1">
          <mxGeometry x="220" y="370" width="60" height="40" as="geometry" />
        </mxCell>
        <mxCell id="BLrR2sBAfBf9mA0j4aaJ-16" style="edgeStyle=orthogonalEdgeStyle;rounded=0;orthogonalLoop=1;jettySize=auto;html=1;exitX=1;exitY=0.5;exitDx=0;exitDy=0;entryX=0;entryY=0.5;entryDx=0;entryDy=0;" edge="1" parent="WIyWlLk6GJQsqaUBKTNV-1" source="BLrR2sBAfBf9mA0j4aaJ-5" target="BLrR2sBAfBf9mA0j4aaJ-4">
          <mxGeometry relative="1" as="geometry" />
        </mxCell>
        <mxCell id="BLrR2sBAfBf9mA0j4aaJ-5" value="middleware" style="rounded=1;whiteSpace=wrap;html=1;fontSize=12;glass=0;strokeWidth=1;shadow=0;" vertex="1" parent="WIyWlLk6GJQsqaUBKTNV-1">
          <mxGeometry x="100" y="370" width="80" height="40" as="geometry" />
        </mxCell>
        <mxCell id="BLrR2sBAfBf9mA0j4aaJ-19" style="edgeStyle=orthogonalEdgeStyle;rounded=0;orthogonalLoop=1;jettySize=auto;html=1;" edge="1" parent="WIyWlLk6GJQsqaUBKTNV-1" source="BLrR2sBAfBf9mA0j4aaJ-6" target="BLrR2sBAfBf9mA0j4aaJ-7">
          <mxGeometry relative="1" as="geometry" />
        </mxCell>
        <mxCell id="BLrR2sBAfBf9mA0j4aaJ-6" value="services" style="rounded=1;whiteSpace=wrap;html=1;fontSize=12;glass=0;strokeWidth=1;shadow=0;" vertex="1" parent="WIyWlLk6GJQsqaUBKTNV-1">
          <mxGeometry x="220" y="440" width="60" height="40" as="geometry" />
        </mxCell>
        <mxCell id="BLrR2sBAfBf9mA0j4aaJ-20" style="edgeStyle=orthogonalEdgeStyle;rounded=0;orthogonalLoop=1;jettySize=auto;html=1;entryX=0.5;entryY=0;entryDx=0;entryDy=0;" edge="1" parent="WIyWlLk6GJQsqaUBKTNV-1" source="BLrR2sBAfBf9mA0j4aaJ-7" target="BLrR2sBAfBf9mA0j4aaJ-8">
          <mxGeometry relative="1" as="geometry" />
        </mxCell>
        <mxCell id="BLrR2sBAfBf9mA0j4aaJ-7" value="model" style="rounded=1;whiteSpace=wrap;html=1;fontSize=12;glass=0;strokeWidth=1;shadow=0;" vertex="1" parent="WIyWlLk6GJQsqaUBKTNV-1">
          <mxGeometry x="220" y="510" width="60" height="40" as="geometry" />
        </mxCell>
        <mxCell id="BLrR2sBAfBf9mA0j4aaJ-8" value="db" style="rounded=1;whiteSpace=wrap;html=1;fontSize=12;glass=0;strokeWidth=1;shadow=0;" vertex="1" parent="WIyWlLk6GJQsqaUBKTNV-1">
          <mxGeometry x="220" y="584.5" width="60" height="40" as="geometry" />
        </mxCell>
      </root>
    </mxGraphModel>
  </diagram>
</mxfile>
